:version 1.10
:name ASF
:units
  mass 1
  length 1
  angle deg
:documentation
  ASF file generated by Kaydara
:root
  axis xyz
  order  tx ty tz rx ry rz
  position 0 0 0
  orientation 0 0 0
:bonedata
  begin
    id 1
    name RightUpLegDummy
    direction -0.718183 -0.695806 0.00816078
    length 4.904
    axis 0 0 0 xyz
  end
  begin
    id 2
    name RightUpLeg
    direction 3.53989e-006 -0.995788 0.0916897
    length 17.4976
    axis -3.49089 -0.000906621 0.000287158 xyz
    dof rx ry rz
  end
  begin
    id 3
    name RightLeg
    direction 0.00371093 -0.995096 -0.0988418
    length 16.5821
    axis 3.68512 0.0193738 -0.131023 xyz
    dof rx ry rz
  end
  begin
    id 4
    name RightFoot
    direction 0.000791514 -0.46099 0.887405
    length 3.77069
    axis 4.84075e-005 -0.120479 -0.188788 xyz
    dof rx ry rz
  end
  begin
    id 5
    name RightToes
    direction 0.00124746 -0.014064 0.9999
    length 3.85082
    axis 0.00048216 0.542163 -0.142577 xyz
    dof rx ry rz
  end
  begin
    id 6
    name SpineDummy
    direction 8.36599e-015 1 5.97571e-016
    length 4.6813
    axis 0 0 0 xyz
  end
  begin
    id 7
    name Spine
    direction -4.63632e-008 0.999988 0.00495137
    length 10.1015
    axis -0.00138897 0.000121419 3.25764e-006 xyz
    dof rx ry rz
  end
  begin
    id 8
    name Spine1
    direction 0 0 0
    length 0
    axis -0.00138896 0.000121452 2.39764e-006 xyz
    dof rx ry rz
  end
  begin
    id 9
    name HEadDummy
    direction -3.91456e-008 0.999999 0.00127422
    length 3.43865
    axis -0.00138896 0.000121452 2.39764e-006 xyz
  end
  begin
    id 10
    name HEad
    direction -0.0222688 0.980941 0.193023
    length 5.12695
    axis -0.00138895 0.000121452 2.39764e-006 xyz
    dof rx ry rz
  end
  begin
    id 11
    name LeftShoulder1Dummy
    direction 0.998891 -0.0402508 -0.0244456
    length 3.5433
    axis -0.00138896 0.000121452 2.39764e-006 xyz
  end
  begin
    id 12
    name LeftShoulder1
    direction 0.99951 -0.000327743 0.0313091
    length 4.05031
    axis -0.00138896 0.000121452 2.39764e-006 xyz
    dof rx ry rz
  end
  begin
    id 13
    name LeftArm
    direction 0.998561 -0.00100054 -0.0536182
    length 10.3537
    axis -23.1894 0.134784 0.96751 xyz
    dof rx ry rz
  end
  begin
    id 14
    name LeftForeArm
    direction 0.998903 0.00866434 0.046012
    length 8.70632
    axis -9.91835 -0.06569 -0.177792 xyz
    dof rx ry rz
  end
  begin
    id 15
    name LeftHand
    direction 0.992938 -0.0411636 0.11126
    length 5.32135
    axis -0.00960227 -0.00340091 0.185174 xyz
    dof rx ry rz
  end
  begin
    id 16
    name RightShoulderDummy
    direction -0.998891 -0.0402509 -0.0244414
    length 3.5433
    axis -0.00138896 0.000121452 2.39764e-006 xyz
  end
  begin
    id 17
    name RightShoulder
    direction -0.99951 -0.000327827 0.0313133
    length 4.05031
    axis 0.215806 0.000203644 -0.00680151 xyz
    dof rx ry rz
  end
  begin
    id 18
    name RightArm
    direction -0.998573 -0.000999583 -0.053403
    length 10.3947
    axis -23.2009 -0.134239 -0.9641 xyz
    dof rx ry rz
  end
  begin
    id 19
    name RightForeArm
    direction -0.998898 0.00868026 0.0461306
    length 8.68355
    axis -9.92322 0.0658061 0.178869 xyz
    dof rx ry rz
  end
  begin
    id 20
    name RightHand
    direction -0.992843 -0.0414603 0.112003
    length 5.28593
    axis -0.00960634 0.00330671 -0.185226 xyz
    dof rx ry rz
  end
  begin
    id 21
    name LeftUpLegDummy
    direction 0.718183 -0.695806 0.00816078
    length 4.904
    axis 0 0 0 xyz
  end
  begin
    id 22
    name LeftUpLeg
    direction -6.8115e-006 -0.995793 0.0916336
    length 17.4976
    axis -3.48766 0.00143441 -0.000523914 xyz
    dof rx ry rz
  end
  begin
    id 23
    name LeftLeg
    direction -0.00601357 -0.995091 -0.0987824
    length 16.5821
    axis 3.68177 -0.00654038 -0.00028478 xyz
    dof rx ry rz
  end
  begin
    id 24
    name LeftFoot
    direction -0.00417578 -0.460984 0.887399
    length 3.77069
    axis 1.87232e-006 4.66002e-005 -8.1837e-006 xyz
    dof rx ry rz
  end
  begin
    id 25
    name LeftToes
    direction 0.00818058 -0.00485161 0.999955
    length 3.85048
    axis 1.06246e-005 4.65855e-005 -8.18502e-006 xyz
    dof rx ry rz
  end
:hierarchy
  begin
    root RightUpLegDummy SpineDummy LeftUpLegDummy
    RightUpLegDummy RightUpLeg
    RightUpLeg RightLeg
    RightLeg RightFoot
    RightFoot RightToes
    SpineDummy Spine
    Spine Spine1
    Spine1 HEadDummy LeftShoulder1Dummy RightShoulderDummy
    HEadDummy HEad
    LeftShoulder1Dummy LeftShoulder1
    LeftShoulder1 LeftArm
    LeftArm LeftForeArm
    LeftForeArm LeftHand
    RightShoulderDummy RightShoulder
    RightShoulder RightArm
    RightArm RightForeArm
    RightForeArm RightHand
    LeftUpLegDummy LeftUpLeg
    LeftUpLeg LeftLeg
    LeftLeg LeftFoot
    LeftFoot LeftToes
  end

:SAMPLES-PER-SECOND 30
:FULLY-SPECIFIED
:DEGREES
17
root  5.44036 39.8573 -1.06673 162.46 -85.8857 -168.783
RightUpLeg  0.856342 -10.397 -6.15676
RightLeg  9.45938 -7.21407 0.824094
RightFoot  -0.920205 -0.765293 8.30859
RightToes  -6.40286e-010 0 -3.6325e-017
Spine  9.91037 -0.0158667 8.75246
Spine1  1.82144 2.31482 -4.67084
HEad  -4.47023 -11.6138 0.513545
LeftShoulder1  2.91317 -6.23022 -23.7004
LeftArm  -10.5919 13.2357 -50.0557
LeftForeArm  3.99347 -2.30727 -13.6514
LeftHand  0.0642035 5.94207 16.2656
RightShoulder  1.55189 2.71845 18.4713
RightArm  -4.49521 -6.7931 50.3001
RightForeArm  23.0665 1.66963 15.0947
RightHand  -0.140779 -4.32591 -13.9374
LeftUpLeg  -5.36162 6.29155 19.4654
LeftLeg  31.7721 -0.222305 0.190253
LeftFoot  5.55252 2.16578 -14.7503
LeftToes  -2.09187e-010 -4.93792e-011 -8.21189e-011
18
root  5.29646 39.9095 -1.10397 168.16 -85.5783 -174.497
RightUpLeg  1.16572 -10.6406 -6.63669
RightLeg  9.23388 -6.55127 1.07507
RightFoot  -1.01434 -0.745962 8.16477
RightToes  -6.40286e-010 0 -3.6325e-017
Spine  9.6231 0.0934299 8.09407
Spine1  2.02679 2.23116 -4.24909
HEad  -4.5632 -11.0889 0.116625
LeftShoulder1  2.89726 -6.30688 -23.283
LeftArm  -11.8927 13.5469 -51.1193
LeftForeArm  3.82417 -2.09239 -13.3742
LeftHand  0.16003 6.57418 17.0479
RightShoulder  1.57083 2.80509 18.4244
RightArm  -4.65041 -4.15082 50.6985
RightForeArm  24.8586 0.641571 15.1652
RightHand  -0.137978 -4.3759 -14.3187
LeftUpLeg  -3.88056 6.15823 18.9912
LeftLeg  26.3612 -0.0432817 0.29028
LeftFoot  3.68613 2.02776 -15.4552
LeftToes  -2.09187e-010 -4.93792e-011 -8.21189e-011
19
root  5.11994 39.9641 -1.09931 170.511 -85.3962 -176.7
RightUpLeg  1.57892 -10.7421 -6.90801
RightLeg  8.60074 -6.22642 1.29024
RightFoot  -0.933617 -0.744464 8.09049
RightToes  -6.40286e-010 0 -3.6325e-017
Spine  9.09276 0.111472 7.44685
Spine1  2.15396 1.98915 -3.79593
HEad  -4.35933 -10.6526 -0.0521232
LeftShoulder1  2.89508 -6.39336 -22.987
LeftArm  -12.4201 13.6937 -51.5637
LeftForeArm  5.14157 -1.20916 -13.2893
LeftHand  0.150884 6.62663 15.6012
RightShoulder  1.56362 2.7866 18.3795
RightArm  -4.59972 -1.93671 51.1462
RightForeArm  25.6553 0.56423 15.1083
RightHand  -0.13961 -4.37101 -14.4492
LeftUpLeg  -2.13888 6.39099 18.5591
LeftLeg  19.558 1.10632 0.726059
LeftFoot  3.47672 2.00464 -15.4973
LeftToes  -2.09187e-010 -4.93792e-011 -8.21189e-011
20
root  4.93354 39.997 -1.02307 169.475 -85.4484 -175.378
RightUpLeg  1.92444 -10.6828 -6.9467
RightLeg  7.90542 -6.31909 1.3536
RightFoot  -0.820561 -0.76938 8.28144
RightToes  -6.40286e-010 0 -3.6325e-017
Spine  8.49401 0.0309322 6.92751
Spine1  2.15268 1.61895 -3.21969
HEad  -4.09161 -10.4154 0.0125276
LeftShoulder1  2.92995 -6.48001 -23.0879
LeftArm  -11.8025 13.5166 -51.2454
LeftForeArm  7.21931 0.00826597 -13.4925
LeftHand  0.0853207 6.2886 13.2837
RightShoulder  1.5416 2.72986 18.2423
RightArm  -3.56958 -0.403756 51.6533
RightForeArm  24.296 1.94003 15.0077
RightHand  -0.148917 -4.29409 -14.4485
LeftUpLeg  -0.530895 7.8518 18.2032
LeftLeg  12.546 1.54989 1.00342
LeftFoot  3.31891 2.16265 -16.88
LeftToes  -2.09187e-010 -4.93792e-011 -8.21189e-011
21
root  4.74802 39.9951 -0.861115 165.605 -85.8693 -171.163
RightUpLeg  2.14877 -10.6039 -6.9356
RightLeg  7.46171 -6.78576 1.28181
RightFoot  -0.837059 -0.812893 8.76459
RightToes  -6.40286e-010 0 -3.6325e-017
Spine  7.97337 -0.162118 6.4441
Spine1  2.04557 1.12274 -2.41964
HEad  -4.00942 -10.4508 0.274568
LeftShoulder1  2.97026 -6.54464 -23.3127
LeftArm  -10.9513 13.1177 -50.6919
LeftForeArm  9.8271 1.23605 -13.7334
LeftHand  0.0302225 5.88527 11.4597
RightShoulder  1.52749 2.71624 18.0544
RightArm  -0.830539 0.424965 52.1609
RightForeArm  20.3192 4.64259 14.7727
RightHand  -0.185018 -4.02075 -14.6921
LeftUpLeg  0.628466 11.7501 17.692
LeftLeg  6.35845 -0.244423 1.25386
LeftFoot  2.71233 2.39975 -19.4316
LeftToes  -2.09187e-010 -4.93792e-011 -8.21189e-011
22
root  4.56299 39.9902 -0.623006 158.573 -86.5851 -163.817
RightUpLeg  2.52977 -10.5719 -7.02538
RightLeg  6.89276 -7.50987 1.21434
RightFoot  -0.767436 -0.865914 9.28056
RightToes  -6.40286e-010 0 -3.6325e-017
Spine  7.57547 -0.411971 5.93122
Spine1  1.93361 0.590145 -1.65632
HEad  -4.19692 -10.7886 0.704818
LeftShoulder1  2.97826 -6.56315 -23.3392
LeftArm  -10.6019 12.6782 -50.4378
LeftForeArm  12.6286 2.16358 -13.7792
LeftHand  -0.0112866 5.46819 10.5083
RightShoulder  1.52596 2.73059 17.9739
RightArm  3.58272 0.739877 52.4956
RightForeArm  14.3816 8.02983 14.1403
RightHand  -0.265812 -3.44974 -15.3118
LeftUpLeg  1.2597 13.2906 16.9149
LeftLeg  1.87431 0.0893033 0.946052
LeftFoot  2.8216 2.47211 -19.8747
LeftToes  -2.09187e-010 -4.93792e-011 -8.21189e-011
23
root  4.37941 40.0119 -0.317645 147.121 -87.3686 -152.201
RightUpLeg  3.33594 -10.5203 -7.26129
RightLeg  5.81909 -8.36816 1.17366
RightFoot  -0.369725 -0.939029 9.7274
RightToes  -6.40286e-010 0 -3.6325e-017
Spine  7.37474 -0.596455 5.30909
Spine1  1.8617 0.158247 -1.05671
HEad  -4.5586 -11.3739 1.23222
LeftShoulder1  2.97073 -6.56705 -23.2481
LeftArm  -10.4573 12.271 -50.5022
LeftForeArm  14.5437 2.38603 -13.7645
LeftHand  -0.0560749 4.94459 10.2263
RightShoulder  1.52518 2.72017 18.0313
RightArm  8.53951 0.743707 52.5541
RightForeArm  8.08634 11.2599 13.0762
RightHand  -0.375889 -2.73471 -16.1056
LeftUpLeg  1.30231 12.8136 15.6583
LeftLeg  -0.283015 1.26628 0.899461
LeftFoot  4.11701 2.29204 -16.9979
LeftToes  -2.09187e-010 -4.93792e-011 -8.21189e-011
24
root  4.19377 40.0416 0.0552448 132.584 -88.0353 -137.758
RightUpLeg  4.41114 -10.4457 -7.74137
RightLeg  4.70656 -9.11371 0.990103
RightFoot  0.126813 -1.03803 10.3199
RightToes  -6.40286e-010 0 -3.6325e-017
Spine  7.50146 -0.588705 4.45962
Spine1  1.72992 -0.0549715 -0.423734
HEad  -4.92553 -12.1223 1.77109
LeftShoulder1  2.98321 -6.61999 -23.2155
LeftArm  -9.81985 11.8897 -50.6712
LeftForeArm  14.5237 1.63273 -13.947
LeftHand  -0.106269 4.34709 10.2201
RightShoulder  1.52642 2.69877 18.1097
RightArm  12.2274 0.532835 52.453
RightForeArm  3.43697 13.4769 12.0476
RightHand  -0.468639 -2.20832 -16.8851
LeftUpLeg  0.883819 11.7264 14.2167
LeftLeg  -0.0423384 1.49759 1.51703
LeftFoot  5.35474 1.97295 -13.5943
LeftToes  -2.09187e-010 -4.93792e-011 -8.21189e-011
25
root  3.98698 40.0366 0.503713 124.71 -88.566 -130.186
RightUpLeg  5.24604 -10.4835 -8.64127
RightLeg  4.44988 -9.33413 0.539083
RightFoot  0.264692 -1.1294 11.1004
RightToes  -6.40286e-010 0 -3.6325e-017
Spine  7.87637 -0.340232 3.59846
Spine1  1.46837 0.0629795 0.0810927
HEad  -5.16286 -12.9952 2.32263
LeftShoulder1  3.00361 -6.72127 -23.1183
LeftArm  -8.24647 11.5558 -50.909
LeftForeArm  12.6663 -0.0703089 -14.3009
LeftHand  -0.155446 3.73542 10.0618
RightShoulder  1.53294 2.7156 18.1527
RightArm  13.154 0.152233 52.4509
RightForeArm  1.99419 14.0961 11.7018
RightHand  -0.506383 -2.07152 -17.5231
LeftUpLeg  0.309411 10.7431 12.9861
LeftLeg  1.91185 1.24334 2.02667
LeftFoot  5.15094 1.77404 -12.4226
LeftToes  -2.09187e-010 -4.93792e-011 -8.21189e-011
26
root  3.73923 40.0101 1.02559 141.876 -88.9211 -147.625
RightUpLeg  5.687 -10.6981 -10.0078
RightLeg  4.79798 -8.804 -0.00598218
RightFoot  0.208572 -1.18768 11.7197
RightToes  -6.40286e-010 0 -3.6325e-017
Spine  8.12923 0.0875129 3.15436
Spine1  1.20271 0.567364 -0.27666
HEad  -5.20721 -13.9522 2.9218
LeftShoulder1  2.99723 -6.79813 -22.821
LeftArm  -5.34835 11.2874 -51.2084
LeftForeArm  9.8424 -2.60087 -14.5689
LeftHand  -0.195357 3.1601 9.64408
RightShoulder  1.54836 2.76515 18.2077
RightArm  11.0904 -0.309587 52.7382
RightForeArm  3.97806 13.0682 12.2193
RightHand  -0.489857 -2.22944 -17.77
LeftUpLeg  0.0123859 10.0959 11.8653
LeftLeg  4.00924 1.70718 1.90835
LeftFoot  3.93525 1.69663 -12.7887
LeftToes  -2.09187e-010 -4.93792e-011 -8.21189e-011
